<svg version="1.1" width="700.000000" height="300.000000" xmlns="http://www.w3.org/2000/svg">
<line x1="350.000000" y1="10.000000" x2="104.000000" y2="60.000000" stroke="black" />
<line x1="104.000000" y1="60.000000" x2="74.000000" y2="110.000000" stroke="black" />
<circle cx="74.000000" cy="110.000000" r="3.000000" fill="red" />
<line x1="104.000000" y1="60.000000" x2="134.000000" y2="110.000000" stroke="black" />
<line x1="134.000000" y1="110.000000" x2="134.000000" y2="160.000000" stroke="black" />
<circle cx="134.000000" cy="160.000000" r="3.000000" fill="red" />
<circle cx="134.000000" cy="110.000000" r="3.000000" fill="red" />
<circle cx="104.000000" cy="60.000000" r="3.000000" fill="red" />
<line x1="350.000000" y1="10.000000" x2="227.000000" y2="60.000000" stroke="black" />
<line x1="227.000000" y1="60.000000" x2="197.000000" y2="110.000000" stroke="black" />
<circle cx="197.000000" cy="110.000000" r="3.000000" fill="red" />
<line x1="227.000000" y1="60.000000" x2="227.000000" y2="110.000000" stroke="black" />
<circle cx="227.000000" cy="110.000000" r="3.000000" fill="red" />
<line x1="227.000000" y1="60.000000" x2="257.000000" y2="110.000000" stroke="black" />
<line x1="257.000000" y1="110.000000" x2="250.000000" y2="160.000000" stroke="black" />
<circle cx="250.000000" cy="160.000000" r="3.000000" fill="red" />
<line x1="257.000000" y1="110.000000" x2="264.000000" y2="160.000000" stroke="black" />
<circle cx="264.000000" cy="160.000000" r="3.000000" fill="red" />
<circle cx="257.000000" cy="110.000000" r="3.000000" fill="red" />
<circle cx="227.000000" cy="60.000000" r="3.000000" fill="red" />
<line x1="350.000000" y1="10.000000" x2="473.000000" y2="60.000000" stroke="black" />
<circle cx="473.000000" cy="60.000000" r="3.000000" fill="red" />
<line x1="350.000000" y1="10.000000" x2="596.000000" y2="60.000000" stroke="black" />
<line x1="596.000000" y1="60.000000" x2="566.000000" y2="110.000000" stroke="black" />
<circle cx="566.000000" cy="110.000000" r="3.000000" fill="red" />
<line x1="596.000000" y1="60.000000" x2="596.000000" y2="110.000000" stroke="black" />
<circle cx="596.000000" cy="110.000000" r="3.000000" fill="red" />
<line x1="596.000000" y1="60.000000" x2="626.000000" y2="110.000000" stroke="black" />
<line x1="626.000000" y1="110.000000" x2="619.000000" y2="160.000000" stroke="black" />
<circle cx="619.000000" cy="160.000000" r="3.000000" fill="red" />
<line x1="626.000000" y1="110.000000" x2="626.000000" y2="160.000000" stroke="black" />
<circle cx="626.000000" cy="160.000000" r="3.000000" fill="red" />
<line x1="626.000000" y1="110.000000" x2="633.000000" y2="160.000000" stroke="black" />
<circle cx="633.000000" cy="160.000000" r="3.000000" fill="red" />
<circle cx="626.000000" cy="110.000000" r="3.000000" fill="red" />
<circle cx="596.000000" cy="60.000000" r="3.000000" fill="red" />
<circle cx="350.000000" cy="10.000000" r="3.000000" fill="red" />
</svg>